<?xml version="1.0" encoding="UTF-8"?>
<svg xmlns="http://www.w3.org/2000/svg" xmlns:xlink="http://www.w3.org/1999/xlink" width="32pt" height="32pt" viewBox="0 0 32 32" version="1.1">
<g id="surface1">
<path style="fill-rule:nonzero;fill:rgb(0%,13.72549%,32.156863%);fill-opacity:1;stroke-width:40.792;stroke-linecap:butt;stroke-linejoin:miter;stroke:rgb(0%,40%,80%);stroke-opacity:1;stroke-miterlimit:10;" d="M 459.408296 239.895 C 459.408296 361.130999 361.130999 459.408296 239.895 459.408296 C 118.659001 459.408296 20.381704 361.130999 20.381704 239.895 C 20.381704 118.659001 118.659001 20.381704 239.895 20.381704 C 361.130999 20.381704 459.408296 118.659001 459.408296 239.895 Z M 459.408296 239.895 " transform="matrix(0.0666958,0,0,0.0666958,0,0)"/>
<path style=" stroke:none;fill-rule:nonzero;fill:rgb(100%,100%,100%);fill-opacity:1;" d="M 7.796875 12.199219 L 18.132812 12.199219 C 18.132812 12.199219 21.703125 12.164062 19.234375 16.765625 C 19.234375 16.765625 17.433594 20.367188 12.964844 20.300781 L 15.375 14.152344 C 15.433594 14.003906 15.417969 13.835938 15.328125 13.703125 C 15.238281 13.570312 15.089844 13.488281 14.929688 13.488281 L 11.765625 13.433594 L 7.761719 23.171875 C 7.761719 23.171875 9.097656 23.304688 9.832031 23.238281 L 9.429688 24.238281 L 11.320312 24.238281 C 11.429688 24.238281 11.523438 24.171875 11.558594 24.070312 L 11.898438 23.171875 L 12.699219 23.101562 L 12.230469 24.238281 L 14.074219 24.238281 C 14.210938 24.238281 14.332031 24.152344 14.382812 24.027344 L 14.902344 22.703125 C 14.902344 22.703125 20.503906 21.769531 23.039062 17.234375 C 23.039062 17.234375 26.4375 11.964844 22.4375 10.097656 C 21.65625 9.738281 20.824219 9.515625 19.96875 9.429688 L 20.441406 8.28125 C 20.46875 8.207031 20.460938 8.128906 20.417969 8.066406 C 20.375 8 20.304688 7.964844 20.226562 7.964844 L 18.5 7.964844 L 17.96875 9.363281 L 17.234375 9.363281 L 17.648438 8.277344 C 17.675781 8.207031 17.664062 8.125 17.621094 8.0625 C 17.578125 8 17.507812 7.964844 17.433594 7.964844 L 15.699219 7.964844 L 15.164062 9.363281 L 9.777344 9.363281 C 9.480469 9.363281 9.207031 9.527344 9.070312 9.789062 Z M 7.796875 12.199219 "/>
</g>
</svg>
