<?xml version="1.0" standalone="no"?>
<!DOCTYPE svg PUBLIC "-//W3C//DTD SVG 20010904//EN"
 "http://www.w3.org/TR/2001/REC-SVG-20010904/DTD/svg10.dtd">
<svg version="1.0" xmlns="http://www.w3.org/2000/svg"
 width="200.000000pt" height="200.000000pt" viewBox="0 0 200.000000 200.000000"
 preserveAspectRatio="xMidYMid meet">

<g transform="translate(0.000000,200.000000) scale(0.100000,-0.100000)"
fill="#000000" stroke="none">
<path d="M890 1994 c-14 -2 -52 -9 -85 -15 -180 -33 -373 -136 -511 -273 -304
-304 -379 -766 -186 -1151 138 -277 386 -468 697 -536 78 -17 312 -17 390 0
401 88 698 385 786 786 17 78 17 312 0 390 -87 393 -373 687 -761 780 -64 15
-281 28 -330 19z m332 -312 c28 -3 90 -64 109 -107 28 -65 33 -125 15 -196
-30 -113 -85 -158 -208 -167 l-68 -5 0 -53 0 -54 34 0 c45 0 66 -22 66 -69 0
-65 -18 -73 -172 -75 -126 -2 -134 -1 -155 21 -26 25 -31 79 -10 105 6 9 23
18 37 20 l25 3 0 214 0 215 -32 8 c-23 6 -35 16 -39 33 -10 40 4 91 27 101 17
8 304 12 371 6z m644 -332 c-16 -100 -76 -192 -219 -338 -80 -81 -154 -136
-327 -239 -75 -45 -90 -50 -122 -44 l-37 6 122 73 c67 40 138 87 157 103 l35
31 -45 -26 c-228 -132 -299 -167 -324 -160 -25 6 -21 10 56 53 103 58 253 162
378 262 96 77 320 295 320 310 0 5 3 9 6 9 4 0 4 -18 0 -40z m-1576 -150 c213
-195 338 -281 556 -379 160 -73 249 -103 437 -151 137 -35 146 -38 120 -49
-74 -31 -394 63 -642 189 -33 16 -64 30 -68 30 -16 0 73 -54 165 -100 126 -63
234 -102 379 -136 127 -29 143 -36 143 -65 0 -15 -5 -18 -32 -13 -68 13 -232
56 -316 83 -328 108 -668 336 -810 543 -44 63 -92 167 -92 197 0 21 4 19 34
-20 18 -24 75 -82 126 -129z m258 -469 c7 -4 26 -35 41 -68 16 -33 39 -67 51
-76 18 -13 20 -19 11 -36 -14 -24 -5 -65 17 -83 8 -7 34 -13 56 -13 29 0 41
-4 41 -14 0 -21 -53 -32 -96 -21 -75 21 -109 66 -140 185 -11 42 -26 77 -39
87 -11 9 -20 21 -20 26 0 20 54 29 78 13z m1080 -13 c18 -18 15 -25 -13 -32
-13 -3 -31 -19 -39 -34 -8 -15 -25 -38 -39 -51 -14 -13 -28 -40 -32 -60 -13
-80 -62 -126 -147 -137 -52 -7 -84 12 -74 43 6 19 10 20 41 10 25 -7 42 -7 60
1 23 10 25 17 25 71 0 56 1 59 30 71 29 12 63 47 103 104 19 28 64 35 85 14z
m-798 -72 c0 -2 -28 -13 -61 -25 -48 -16 -66 -18 -82 -10 -18 10 -13 14 44 34
44 15 70 19 82 13 9 -5 17 -10 17 -12z m103 -47 c-12 -10 -195 -69 -216 -69
-21 0 -22 23 -2 40 8 6 47 22 86 35 58 18 78 20 106 12 18 -6 30 -14 26 -18z
m868 11 c27 -15 25 -64 -3 -84 -47 -33 -78 -14 -58 35 10 23 10 32 0 44 -11
13 -8 15 14 15 15 0 36 -5 47 -10z m-99 -16 c4 -3 0 -17 -8 -32 -12 -25 -20
-27 -84 -32 -66 -5 -70 -4 -70 16 0 33 38 53 101 53 31 1 58 -2 61 -5z m-1189
-50 c2 -28 1 -29 -56 -34 -71 -7 -82 -1 -66 33 9 19 22 27 58 34 53 11 61 7
64 -33z m-165 27 c28 -17 9 -46 -33 -51 -27 -3 -40 -10 -40 -20 0 -11 11 -15
45 -13 l45 2 -28 -15 c-35 -19 -84 -10 -92 16 -16 49 60 109 103 81z m1377
-92 c-8 -12 -32 -12 -40 1 -11 18 5 31 26 20 11 -6 17 -15 14 -21z"/>
<path d="M1077 1533 c-4 -3 -7 -48 -7 -100 0 -101 1 -102 59 -82 39 14 51 35
51 94 0 35 -6 51 -25 70 -23 24 -64 33 -78 18z"/>
</g>
</svg>
