<?xml version="1.0" encoding="UTF-8"?>
<svg width="32px" height="32px" viewBox="0 0 32 32" version="1.1" xmlns="http://www.w3.org/2000/svg" xmlns:xlink="http://www.w3.org/1999/xlink">
    <!-- Generator: Sketch 58 (84663) - https://sketch.com -->
    <title>coins/ fix</title>
    <desc>Created with Sketch.</desc>
    <g id="coins/-fix" stroke="none" stroke-width="1" fill="none" fill-rule="evenodd">
        <g id="logo" transform="translate(4.000000, 9.000000)" fill-rule="nonzero">
            <path d="M0.753719239,0 L7.11932434,0 C7.58757903,5.51921323e-16 8.02092142,0.24762422 8.25865072,0.651043644 L12,7 L12,7 L8.26365979,13.3404561 C8.14006053,13.5502003 7.86983227,13.6200346 7.66008808,13.4964353 C7.59312682,13.456976 7.53778894,13.4005137 7.49968442,13.3327723 L0.369519328,0.65692325 C0.250163718,0.444735499 0.325419038,0.175966501 0.537606789,0.0566108903 C0.603588074,0.0194964178 0.678015778,-2.08138105e-16 0.753719239,0 Z" id="Path" fill="#5CB54B"></path>
            <path d="M12.7537192,0 L19.1193243,0 C19.587579,5.51921323e-16 20.0209214,0.24762422 20.2586507,0.651043644 L24,7 L24,7 L20.2636598,13.3404561 C20.1400605,13.5502003 19.8698323,13.6200346 19.6600881,13.4964353 C19.5931268,13.456976 19.5377889,13.4005137 19.4996844,13.3327723 L12.3695193,0.65692325 C12.2501637,0.444735499 12.325419,0.175966501 12.5376068,0.0566108903 C12.6035881,0.0194964178 12.6780158,-2.08138105e-16 12.7537192,0 Z" id="Path" fill="#E93F33" transform="translate(18.000000, 7.000000) scale(-1, 1) translate(-18.000000, -7.000000) "></path>
        </g>
    </g>
</svg>